<?xml version="1.0" standalone="no"?>
<!DOCTYPE svg PUBLIC "-//W3C//DTD SVG 20010904//EN"
 "http://www.w3.org/TR/2001/REC-SVG-20010904/DTD/svg10.dtd">
<svg version="1.0" xmlns="http://www.w3.org/2000/svg"
 width="300.000000pt" height="300.000000pt" viewBox="0 0 300.000000 300.000000"
 preserveAspectRatio="xMidYMid meet">
<metadata>
Created by potrace 1.10, written by Peter Selinger 2001-2011
</metadata>
<g transform="translate(0.000000,300.000000) scale(0.100000,-0.100000)"
fill="#000000" stroke="none">
<path d="M1020 1779 c-114 -139 -118 -144 -97 -136 15 6 17 -2 17 -66 l0 -72
155 0 155 0 0 74 c0 61 3 72 15 67 24 -9 18 1 -47 77 -35 40 -76 89 -93 109
l-30 38 -75 -91z m116 -5 c16 -20 43 -53 61 -73 29 -32 31 -40 26 -86 -8 -80
0 -76 -130 -73 l-118 3 -5 60 -6 60 55 65 c54 64 70 80 82 80 4 0 20 -16 35
-36z"/>
<path d="M1042 1718 c-16 -16 -16 -90 0 -106 7 -7 30 -12 53 -12 52 0 65 13
65 65 0 52 -13 65 -65 65 -23 0 -46 -5 -53 -12z m48 -28 c0 -13 -7 -20 -20
-20 -13 0 -20 7 -20 20 0 13 7 20 20 20 13 0 20 -7 20 -20z m50 0 c0 -13 -7
-20 -20 -20 -13 0 -20 7 -20 20 0 13 7 20 20 20 13 0 20 -7 20 -20z m-50 -50
c0 -13 -7 -20 -20 -20 -13 0 -20 7 -20 20 0 13 7 20 20 20 13 0 20 -7 20 -20z
m50 0 c0 -13 -7 -20 -20 -20 -13 0 -20 7 -20 20 0 13 7 20 20 20 13 0 20 -7
20 -20z"/>
<path d="M1476 1842 c-11 -15 -51 -64 -88 -108 -70 -83 -77 -96 -55 -91 9 1
12 -17 12 -67 l0 -69 155 0 154 0 1 69 c0 50 3 68 13 67 6 -2 12 0 12 3 0 5
-179 224 -183 224 -1 0 -11 -13 -21 -28z m89 -106 l61 -72 -6 -60 -5 -59 -113
-3 c-125 -3 -118 -7 -125 71 -4 45 -2 51 42 105 67 84 75 92 81 91 3 0 32 -33
65 -73z"/>
<path d="M1458 1726 c-30 -15 -38 -95 -12 -117 21 -17 87 -18 108 0 20 17 22
94 2 110 -19 16 -72 20 -98 7z m82 -37 c0 -21 -39 -27 -41 -6 0 10 -2 10 -6 0
-7 -20 -33 -15 -33 6 0 15 8 18 40 18 32 0 40 -3 40 -18z m-50 -41 c0 -9 3 -9
12 0 18 18 38 14 38 -7 0 -15 -8 -18 -40 -18 -32 0 -40 3 -40 18 0 11 7 19 15
19 8 0 15 -5 15 -12z"/>
<path d="M1815 1762 c-98 -116 -104 -125 -81 -116 14 5 16 -4 16 -67 l0 -74
155 0 155 0 0 72 c0 65 2 72 18 66 20 -8 24 -14 -92 127 -43 52 -80 96 -80 97
-1 1 -42 -46 -91 -105z m154 -28 c64 -80 73 -111 51 -168 -9 -26 -11 -26 -119
-26 -122 0 -121 -1 -121 77 0 35 7 55 27 82 30 39 94 111 98 111 2 0 31 -34
64 -76z"/>
<path d="M1856 1719 c-32 -25 -34 -66 -5 -103 43 -54 133 -15 124 55 -2 18
-11 39 -19 47 -23 23 -71 24 -100 1z m44 -29 c0 -13 -7 -20 -20 -20 -13 0 -20
7 -20 20 0 13 7 20 20 20 13 0 20 -7 20 -20z m48 -3 c2 -12 -3 -17 -17 -17
-15 0 -21 6 -21 21 0 25 33 22 38 -4z m-48 -47 c0 -13 -7 -20 -20 -20 -13 0
-20 7 -20 20 0 13 7 20 20 20 13 0 20 -7 20 -20z m50 0 c0 -13 -7 -20 -20 -20
-13 0 -20 7 -20 20 0 13 7 20 20 20 13 0 20 -7 20 -20z"/>
<path d="M990 1363 c0 -27 5 -54 12 -61 16 -16 43 -15 57 2 14 17 23 86 13
101 -4 5 -9 -12 -12 -40 -4 -42 -8 -50 -27 -53 -17 -3 -24 3 -29 23 -3 14 -4
34 -1 45 3 11 1 23 -4 26 -5 3 -9 -17 -9 -43z"/>
<path d="M1120 1349 c0 -41 3 -58 11 -53 7 4 9 22 5 48 l-6 41 20 -27 c11 -14
29 -37 40 -50 l19 -23 -1 65 c-1 56 -2 59 -5 17 l-4 -48 -35 45 c-19 25 -37
46 -39 46 -3 0 -5 -27 -5 -61z"/>
<path d="M1263 1350 c0 -36 2 -50 4 -32 2 17 2 47 0 65 -2 17 -4 3 -4 -33z"/>
<path d="M1320 1350 c0 -40 4 -59 10 -55 6 4 8 15 5 26 -5 16 -1 19 24 19 27
0 31 -4 31 -26 0 -14 4 -23 10 -19 6 3 10 31 10 61 0 30 -4 54 -10 54 -5 0
-10 -11 -10 -25 0 -21 -5 -25 -31 -25 -25 0 -29 3 -24 19 3 11 1 22 -5 26 -6
4 -10 -15 -10 -55z"/>
<path d="M1472 1394 c-43 -30 -16 -104 39 -104 43 0 65 73 31 103 -23 21 -41
21 -70 1z m68 -24 c23 -44 -29 -80 -64 -44 -19 18 -19 20 -6 45 14 25 56 25
70 -1z"/>
<path d="M1600 1367 c0 -43 21 -77 48 -77 24 0 42 33 42 76 0 59 -18 56 -22
-3 -3 -40 -6 -48 -23 -48 -17 0 -20 8 -23 48 -4 59 -22 62 -22 4z"/>
<path d="M1742 1398 c-19 -19 -14 -37 13 -50 14 -6 25 -18 25 -26 0 -10 -7
-12 -25 -8 -30 8 -34 -10 -5 -19 23 -7 50 10 50 31 0 8 -11 20 -25 26 -31 14
-34 43 -4 35 13 -3 19 -1 16 6 -5 17 -30 20 -45 5z"/>
<path d="M1839 1405 c0 -3 -1 -29 -1 -57 -1 -52 0 -53 31 -56 17 -2 31 1 31 7
0 6 -11 11 -25 11 -16 0 -25 6 -25 15 0 8 9 15 20 15 11 0 20 5 20 10 0 6 -9
10 -20 10 -11 0 -20 7 -20 15 0 9 9 15 25 15 14 0 25 5 25 10 0 10 -59 15 -61
5z"/>
<path d="M1940 1350 c0 -33 4 -60 10 -60 6 0 10 11 10 25 0 14 5 25 10 25 6 0
16 -11 22 -25 6 -14 15 -25 20 -25 12 0 10 8 -8 35 -10 15 -12 25 -5 25 17 0
13 47 -5 54 -45 17 -54 9 -54 -54z m58 23 c2 -8 -5 -13 -17 -13 -12 0 -21 6
-21 16 0 18 31 15 38 -3z"/>
</g>
</svg>
